<svg class="border shadow-md" viewBox="0 0 797.28 797.28" style="width: 797.28px; height: 797.28px;" xmlns="http://www.w3.org/2000/svg" preserveAspectRatio="none"><rect class="bg" id="bg" x="0" y="0" width="797.28" height="797.28" fill="#a30000"/><path d="M 0 -66.44 L 0 -66.44&#10;                L 132.88 -15.44&#10;                L 398.64 -66.44 L 398.64 -66.44&#10;                L 531.52 -33.22&#10;                L 797.28 -66.44 L 797.28 -66.44&#10;                L 931.28 -33.22&#10;                L 1195.92 -66.44  V 797.28 H 0 V -66.44 Z" fill="#F42E45"/><path d="M 0 0 L 0 0.00&#10;                L 132.88 48.00&#10;                L 398.64 0.00 L 398.64 0.00&#10;                L 531.52 54.00&#10;                L 797.28 0.00 L 797.28 0.00&#10;                L 1061.28 33.22&#10;                L 1195.92 0.00  V 797.28 H 0 V 0.00 Z" fill="#f43c52"/><path d="M 0 66.44 L 0 66.44&#10;                L 132.88 99.66&#10;                L 398.64 66.44 L 398.64 66.44&#10;                L 627.64 99.66&#10;                L 797.28 66.44 L 797.28 66.44&#10;                L 1084.28 99.66&#10;                L 1195.92 66.44  V 797.28 H 0 V 66.44 Z" fill="#f44a5f"/><path d="M 0 132.88 L 0 132.88&#10;                L 132.88 166.10&#10;                L 398.64 132.88 L 398.64 132.88&#10;                L 682.64 166.10&#10;                L 797.28 132.88 L 797.28 132.88&#10;                L 930.16 166.10&#10;                L 1195.92 132.88  V 797.28 H 0 V 132.88 Z" fill="#f4586c"/><path d="M 0 199.32 L 0 199.32&#10;                L 132.88 232.54&#10;                L 398.64 199.32 L 398.64 199.32&#10;                L 531.52 242.32&#10;                L 797.28 199.32 L 797.28 199.32&#10;                L 930.16 232.54&#10;                L 1195.92 199.32  V 797.28 H 0 V 199.32 Z" fill="#f46679"/><path d="M 0 265.76 L 0 265.76&#10;                L 132.88 298.98&#10;                L 398.64 265.76 L 398.64 265.76&#10;                L 531.52 298.98&#10;                L 797.28 265.76 L 797.28 265.76&#10;                L 1090.28 298.98&#10;                L 1195.92 265.76  V 797.28 H 0 V 265.76 Z" fill="#f47486"/><path d="M 0 332.2 L 0 332.20&#10;                L 288.00 384.20&#10;                L 398.64 332.20 L 398.64 332.20&#10;                L 600.64 365.42&#10;                L 797.28 332.20 L 797.28 332.20&#10;                L 1016.28 365.42&#10;                L 1195.92 332.20  V 797.28 H 0 V 332.20 Z" fill="#f48293"/><path d="M 0 398.64 L 0 398.64&#10;                L 247.00 436.64&#10;                L 398.64 398.64 L 398.64 398.64&#10;                L 593.64 456.64&#10;                L 797.28 398.64 L 797.28 398.64&#10;                L 930.16 431.86&#10;                L 1195.92 398.64  V 797.28 H 0 V 398.64 Z" fill="#f490a0"/><path d="M 0 465.08 L 0 465.08&#10;                L 132.88 498.30&#10;                L 398.64 465.08 L 398.64 465.08&#10;                L 610.64 500.08&#10;                L 797.28 465.08 L 797.28 465.08&#10;                L 1011.28 498.30&#10;                L 1195.92 465.08  V 797.28 H 0 V 465.08 Z" fill="#f49ead"/><path d="M 0 531.52 L 0 531.52&#10;                L 132.88 564.74&#10;                L 398.64 531.52 L 398.64 531.52&#10;                L 671.64 564.74&#10;                L 797.28 531.52 L 797.28 531.52&#10;                L 962.28 564.74&#10;                L 1195.92 531.52  V 797.28 H 0 V 531.52 Z" fill="#f4acba"/><path d="M 0 597.96 L 0 597.96&#10;                L 134.00 656.96&#10;                L 398.64 597.96 L 398.64 597.96&#10;                L 531.52 650.96&#10;                L 797.28 597.96 L 797.28 597.96&#10;                L 930.16 631.18&#10;                L 1195.92 597.96  V 797.28 H 0 V 597.96 Z" fill="#f4bac7"/><path d="M 0 664.4 L 0 664.40&#10;                L 132.88 723.40&#10;                L 398.64 664.40 L 398.64 664.40&#10;                L 531.52 697.62&#10;                L 797.28 664.40 L 797.28 664.40&#10;                L 930.16 729.40&#10;                L 1195.92 664.40  V 797.28 H 0 V 664.40 Z" fill="#f4c8d4"/><path d="M 0 730.8399999999999 L 0 730.84&#10;                L 132.88 764.06&#10;                L 398.64 730.84 L 398.64 730.84&#10;                L 531.52 790.84&#10;                L 797.28 730.84 L 797.28 730.84&#10;                L 1067.28 777.84&#10;                L 1195.92 730.84  V 797.28 H 0 V 730.84 Z" fill="#f4d6e1"/></svg>